<svg xmlns="http://www.w3.org/2000/svg" version="1.1" xmlns:xlink="http://www.w3.org/1999/xlink" xmlns:svgjs="http://svgjs.dev/svgjs" width="74" height="74"><svg width="74" height="74" viewBox="0 0 74 74" fill="none" xmlns="http://www.w3.org/2000/svg">
<circle cx="37" cy="37" r="37" fill="white"></circle>
<path d="M37 19.4444C34.6425 19.4444 32.3816 20.3809 30.7146 22.0479C29.0476 23.7149 28.1111 25.9759 28.1111 28.3333C28.1111 30.6908 29.0476 32.9517 30.7146 34.6187C32.3816 36.2857 34.6425 37.2222 37 37.2222C39.3575 37.2222 41.6184 36.2857 43.2854 34.6187C44.9524 32.9517 45.8889 30.6908 45.8889 28.3333C45.8889 25.9759 44.9524 23.7149 43.2854 22.0479C41.6184 20.3809 39.3575 19.4444 37 19.4444ZM23.6667 28.3333C23.6667 24.7971 25.0714 21.4057 27.5719 18.9052C30.0724 16.4048 33.4638 15 37 15C40.5362 15 43.9276 16.4048 46.4281 18.9052C48.9286 21.4057 50.3333 24.7971 50.3333 28.3333C50.3333 31.8696 48.9286 35.2609 46.4281 37.7614C43.9276 40.2619 40.5362 41.6667 37 41.6667C33.4638 41.6667 30.0724 40.2619 27.5719 37.7614C25.0714 35.2609 23.6667 31.8696 23.6667 28.3333ZM28.1111 50.5555C26.343 50.5555 24.6473 51.2579 23.3971 52.5082C22.1468 53.7584 21.4444 55.4541 21.4444 57.2222C21.4444 57.8116 21.2103 58.3768 20.7936 58.7936C20.3768 59.2103 19.8116 59.4444 19.2222 59.4444C18.6329 59.4444 18.0676 59.2103 17.6509 58.7936C17.2341 58.3768 17 57.8116 17 57.2222C17 54.2754 18.1706 51.4492 20.2544 49.3655C22.3381 47.2817 25.1643 46.1111 28.1111 46.1111H45.8889C48.8357 46.1111 51.6619 47.2817 53.7456 49.3655C55.8294 51.4492 57 54.2754 57 57.2222C57 57.8116 56.7659 58.3768 56.3491 58.7936C55.9324 59.2103 55.3671 59.4444 54.7778 59.4444C54.1884 59.4444 53.6232 59.2103 53.2064 58.7936C52.7897 58.3768 52.5556 57.8116 52.5556 57.2222C52.5556 55.4541 51.8532 53.7584 50.6029 52.5082C49.3527 51.2579 47.657 50.5555 45.8889 50.5555H28.1111Z" fill="#949494"></path>
</svg><style>@media (prefers-color-scheme: light) { :root { filter: contrast(1) brightness(0.7); } }
@media (prefers-color-scheme: dark) { :root { filter: none; } }
</style></svg>