<svg width="23" height="24" viewBox="0 0 23 24" fill="none" xmlns="http://www.w3.org/2000/svg">
<path d="M11.5 2.8C9.06001 2.8 6.71995 3.76928 4.99462 5.49462C3.26928 7.21995 2.3 9.56001 2.3 12C2.3 14.44 3.26928 16.78 4.99462 18.5054C6.71995 20.2307 9.06001 21.2 11.5 21.2C13.94 21.2 16.28 20.2307 18.0054 18.5054C19.7307 16.78 20.7 14.44 20.7 12C20.7 9.56001 19.7307 7.21995 18.0054 5.49462C16.28 3.76928 13.94 2.8 11.5 2.8ZM0 12C0 5.64855 5.14855 0.5 11.5 0.5C17.8514 0.5 23 5.64855 23 12C23 18.3514 17.8514 23.5 11.5 23.5C5.14855 23.5 0 18.3514 0 12ZM11.5 5.1C11.805 5.1 12.0975 5.22116 12.3132 5.43683C12.5288 5.65249 12.65 5.945 12.65 6.25V11.5239L15.763 14.6369C15.9725 14.8538 16.0884 15.1443 16.0858 15.4459C16.0832 15.7474 15.9623 16.0358 15.749 16.249C15.5358 16.4623 15.2474 16.5832 14.9459 16.5858C14.6443 16.5884 14.3538 16.4725 14.1369 16.263L10.6869 12.813C10.4713 12.5974 10.3501 12.305 10.35 12V6.25C10.35 5.945 10.4712 5.65249 10.6868 5.43683C10.9025 5.22116 11.195 5.1 11.5 5.1Z" fill="white"/>
</svg>
