<svg width="20" height="20" viewBox="0 0 20 20" fill="none" xmlns="http://www.w3.org/2000/svg">
<path d="M6.25 9.5C6.58152 9.5 6.89946 9.39464 7.13388 9.20711C7.3683 9.01957 7.5 8.76522 7.5 8.5C7.5 8.23478 7.3683 7.98043 7.13388 7.79289C6.89946 7.60536 6.58152 7.5 6.25 7.5C5.91848 7.5 5.60054 7.60536 5.36612 7.79289C5.1317 7.98043 5 8.23478 5 8.5C5 8.76522 5.1317 9.01957 5.36612 9.20711C5.60054 9.39464 5.91848 9.5 6.25 9.5ZM8.75 8.5C8.75 8.23478 8.8817 7.98043 9.11612 7.79289C9.35054 7.60536 9.66848 7.5 10 7.5H13.75C14.0815 7.5 14.3995 7.60536 14.6339 7.79289C14.8683 7.98043 15 8.23478 15 8.5C15 8.76522 14.8683 9.01957 14.6339 9.20711C14.3995 9.39464 14.0815 9.5 13.75 9.5H10C9.66848 9.5 9.35054 9.39464 9.11612 9.20711C8.8817 9.01957 8.75 8.76522 8.75 8.5ZM10 10.5C9.66848 10.5 9.35054 10.6054 9.11612 10.7929C8.8817 10.9804 8.75 11.2348 8.75 11.5C8.75 11.7652 8.8817 12.0196 9.11612 12.2071C9.35054 12.3946 9.66848 12.5 10 12.5H13.75C14.0815 12.5 14.3995 12.3946 14.6339 12.2071C14.8683 12.0196 15 11.7652 15 11.5C15 11.2348 14.8683 10.9804 14.6339 10.7929C14.3995 10.6054 14.0815 10.5 13.75 10.5H10ZM10 13.5C9.66848 13.5 9.35054 13.6054 9.11612 13.7929C8.8817 13.9804 8.75 14.2348 8.75 14.5C8.75 14.7652 8.8817 15.0196 9.11612 15.2071C9.35054 15.3946 9.66848 15.5 10 15.5H13.75C14.0815 15.5 14.3995 15.3946 14.6339 15.2071C14.8683 15.0196 15 14.7652 15 14.5C15 14.2348 14.8683 13.9804 14.6339 13.7929C14.3995 13.6054 14.0815 13.5 13.75 13.5H10ZM7.5 11.5C7.5 11.7652 7.3683 12.0196 7.13388 12.2071C6.89946 12.3946 6.58152 12.5 6.25 12.5C5.91848 12.5 5.60054 12.3946 5.36612 12.2071C5.1317 12.0196 5 11.7652 5 11.5C5 11.2348 5.1317 10.9804 5.36612 10.7929C5.60054 10.6054 5.91848 10.5 6.25 10.5C6.58152 10.5 6.89946 10.6054 7.13388 10.7929C7.3683 10.9804 7.5 11.2348 7.5 11.5ZM6.25 15.5C6.58152 15.5 6.89946 15.3946 7.13388 15.2071C7.3683 15.0196 7.5 14.7652 7.5 14.5C7.5 14.2348 7.3683 13.9804 7.13388 13.7929C6.89946 13.6054 6.58152 13.5 6.25 13.5C5.91848 13.5 5.60054 13.6054 5.36612 13.7929C5.1317 13.9804 5 14.2348 5 14.5C5 14.7652 5.1317 15.0196 5.36612 15.2071C5.60054 15.3946 5.91848 15.5 6.25 15.5Z" fill="white"/>
<path d="M6.25 0C5.91848 0 5.60054 0.105357 5.36612 0.292893C5.1317 0.48043 5 0.734784 5 1H2.5C1.83696 1 1.20107 1.21071 0.732233 1.58579C0.263392 1.96086 0 2.46957 0 3V18C0 18.5304 0.263392 19.0391 0.732233 19.4142C1.20107 19.7893 1.83696 20 2.5 20H17.5C18.163 20 18.7989 19.7893 19.2678 19.4142C19.7366 19.0391 20 18.5304 20 18V3C20 2.46957 19.7366 1.96086 19.2678 1.58579C18.7989 1.21071 18.163 1 17.5 1H15C15 0.734784 14.8683 0.48043 14.6339 0.292893C14.3995 0.105357 14.0815 0 13.75 0H6.25ZM15 3H17.5V18H2.5V3H5V4C5 4.26522 5.1317 4.51957 5.36612 4.70711C5.60054 4.89464 5.91848 5 6.25 5H13.75C14.0815 5 14.3995 4.89464 14.6339 4.70711C14.8683 4.51957 15 4.26522 15 4V3ZM7.5 3V2H12.5V3H7.5Z" fill="white"/>
</svg>
