<svg width="23" height="24" viewBox="0 0 23 24" fill="none" xmlns="http://www.w3.org/2000/svg">
<path d="M11.5 2.8C9.06001 2.8 6.71995 3.76928 4.99462 5.49462C3.26928 7.21995 2.3 9.56001 2.3 12C2.3 14.44 3.26928 16.78 4.99462 18.5054C6.71995 20.2307 9.06001 21.2 11.5 21.2C13.94 21.2 16.28 20.2307 18.0054 18.5054C19.7307 16.78 20.7 14.44 20.7 12C20.7 9.56001 19.7307 7.21995 18.0054 5.49462C16.28 3.76928 13.94 2.8 11.5 2.8ZM0 12C0 5.64855 5.14855 0.5 11.5 0.5C17.8514 0.5 23 5.64855 23 12C23 18.3514 17.8514 23.5 11.5 23.5C5.14855 23.5 0 18.3514 0 12ZM16.8636 8.26595C17.0913 8.46856 17.2292 8.75327 17.2471 9.05752C17.265 9.36178 17.1614 9.66069 16.959 9.8886L10.8261 16.7886C10.7182 16.91 10.5858 17.0072 10.4377 17.0737C10.2895 17.1403 10.1289 17.1747 9.96647 17.1747C9.80405 17.1747 9.64347 17.1403 9.4953 17.0737C9.34713 17.0072 9.21474 16.91 9.10685 16.7886L6.04095 13.3386C5.85019 13.1091 5.75609 12.8145 5.77854 12.5169C5.80099 12.2194 5.93823 11.9422 6.16126 11.7439C6.3843 11.5457 6.67566 11.4419 6.97381 11.4545C7.27195 11.4671 7.55352 11.595 7.75905 11.8114L9.96705 14.2942L15.2409 8.36025C15.4437 8.13273 15.7285 7.995 16.0328 7.97732C16.337 7.95964 16.6358 8.06345 16.8636 8.26595Z" fill="white"/>
</svg>
