<svg width="25" height="25" viewBox="0 0 25 25" fill="none" xmlns="http://www.w3.org/2000/svg">
<rect width="25" height="25" rx="5" fill="black" fill-opacity="0.25"/>
<g clip-path="url(#clip0_60_620)">
<path d="M6.22517 5.81096C5.83465 5.42044 5.20148 5.42044 4.81096 5.81096C4.42044 6.20148 4.42044 6.83465 4.81096 7.22517L10.5857 12.9999L4.81102 18.7746C4.4205 19.1651 4.42049 19.7983 4.81102 20.1888C5.20154 20.5793 5.83471 20.5793 6.22523 20.1888L11.9999 14.4141L17.7746 20.1888C18.1651 20.5793 18.7983 20.5793 19.1888 20.1888C19.5793 19.7983 19.5793 19.1651 19.1888 18.7746L13.4141 12.9999L19.1889 7.22517C19.5794 6.83465 19.5794 6.20148 19.1889 5.81096C18.7983 5.42044 18.1652 5.42044 17.7746 5.81096L11.9999 11.5857L6.22517 5.81096Z" fill="black"/>
</g>
<defs>
<clipPath id="clip0_60_620">
<rect width="12" height="12" fill="white" transform="translate(6 7)"/>
</clipPath>
</defs>
</svg>
