<svg width="26" height="25" viewBox="0 0 26 25" fill="none" xmlns="http://www.w3.org/2000/svg">
<rect x="0.0195312" width="25.9804" height="25" rx="5" fill="black" fill-opacity="0.25"/>
<path fill-rule="evenodd" clip-rule="evenodd" d="M18.8603 6.19573C18.5996 5.93476 18.1769 5.93476 17.9162 6.19573L17.3338 6.77868C16.5894 6.4227 15.6707 6.55332 15.0541 7.17054L7.97309 14.2584L11.7496 18.0386L18.8306 10.9507C19.4472 10.3335 19.5777 9.41396 19.2221 8.66878L19.8045 8.08583C20.0652 7.82486 20.0652 7.40174 19.8045 7.14078L18.8603 6.19573ZM16.011 11.883L11.7496 16.1485L9.86135 14.2584L14.1228 9.99287L16.011 11.883ZM17.2249 10.6679L17.8865 10.0057C18.1472 9.74472 18.1472 9.32161 17.8865 9.06064L16.9423 8.11559C16.6816 7.85462 16.2589 7.85462 15.9982 8.11559L15.3366 8.7778L17.2249 10.6679Z" fill="black"/>
<path d="M6 20L7.41646 14.802L11.1927 18.5824L6 20Z" fill="black"/>
</svg>
