<svg width="25" height="25" viewBox="0 0 25 25" fill="none" xmlns="http://www.w3.org/2000/svg">
<path d="M12 11.9794C12 11.4271 12.4477 10.9794 13 10.9794C13.5523 10.9794 14 11.4271 14 11.9794V17.9794C14 18.5317 13.5523 18.9794 13 18.9794C12.4477 18.9794 12 18.5317 12 17.9794V11.9794Z" fill="black"/>
<path d="M13 7.05115C12.4477 7.05115 12 7.49886 12 8.05115C12 8.60343 12.4477 9.05115 13 9.05115C13.5523 9.05115 14 8.60343 14 8.05115C14 7.49886 13.5523 7.05115 13 7.05115Z" fill="black"/>
<path fill-rule="evenodd" clip-rule="evenodd" d="M13 3C7.47715 3 3 7.47715 3 13C3 18.5228 7.47715 23 13 23C18.5228 23 23 18.5228 23 13C23 7.47715 18.5228 3 13 3ZM5 13C5 17.4183 8.58172 21 13 21C17.4183 21 21 17.4183 21 13C21 8.58172 17.4183 5 13 5C8.58172 5 5 8.58172 5 13Z" fill="black"/>
<rect width="25" height="25" rx="5" fill="black" fill-opacity="0.25"/>
</svg>
