<svg width="20" height="21" viewBox="0 0 20 21" fill="none" xmlns="http://www.w3.org/2000/svg">
<path d="M10 2.1C8.82126 2.1 7.6908 2.5425 6.8573 3.33015C6.02381 4.1178 5.55556 5.18609 5.55556 6.3C5.55556 7.41391 6.02381 8.4822 6.8573 9.26985C7.6908 10.0575 8.82126 10.5 10 10.5C11.1787 10.5 12.3092 10.0575 13.1427 9.26985C13.9762 8.4822 14.4444 7.41391 14.4444 6.3C14.4444 5.18609 13.9762 4.1178 13.1427 3.33015C12.3092 2.5425 11.1787 2.1 10 2.1ZM3.33333 6.3C3.33333 4.62914 4.03571 3.02671 5.28596 1.84523C6.5362 0.663748 8.23189 0 10 0C11.7681 0 13.4638 0.663748 14.714 1.84523C15.9643 3.02671 16.6667 4.62914 16.6667 6.3C16.6667 7.97086 15.9643 9.57329 14.714 10.7548C13.4638 11.9363 11.7681 12.6 10 12.6C8.23189 12.6 6.5362 11.9363 5.28596 10.7548C4.03571 9.57329 3.33333 7.97086 3.33333 6.3ZM5.55556 16.8C4.6715 16.8 3.82365 17.1319 3.19853 17.7226C2.57341 18.3134 2.22222 19.1146 2.22222 19.95C2.22222 20.2285 2.10516 20.4955 1.89679 20.6925C1.68841 20.8894 1.4058 21 1.11111 21C0.816426 21 0.533811 20.8894 0.325437 20.6925C0.117063 20.4955 0 20.2285 0 19.95C0 18.5576 0.585316 17.2223 1.62718 16.2377C2.66905 15.2531 4.08213 14.7 5.55556 14.7H14.4444C15.9179 14.7 17.3309 15.2531 18.3728 16.2377C19.4147 17.2223 20 18.5576 20 19.95C20 20.2285 19.8829 20.4955 19.6746 20.6925C19.4662 20.8894 19.1836 21 18.8889 21C18.5942 21 18.3116 20.8894 18.1032 20.6925C17.8948 20.4955 17.7778 20.2285 17.7778 19.95C17.7778 19.1146 17.4266 18.3134 16.8015 17.7226C16.1763 17.1319 15.3285 16.8 14.4444 16.8H5.55556Z" fill="white"/>
</svg>
